# xmcd
#
# Track frame offsets: 
#        150
#        21412
#        33898
#        47804
#        57915
#        67927
#        79366
#        91954
#        104635
#        134651
#        144664
#        162799
#        180531
#        190436
#        200639
#        210199
#        226140
#        235919
#        251324
#        264541
#        272159
#        286480
#        296136
#        324697
#        337958
#        349057
#
# Disc length: 4796 seconds
#
# Revision: 0
# Processed by: cddbd v1.5.2PL0 Copyright (c) Steve Scherf et al.
# Submitted via: ExactAudioCopyFreeDBPlugin 1.0
#
DISCID=8f12ba1a
DTITLE=Various Artist - Really the Blues - Disc 33
DYEAR=1900
DGENRE=50s
TTITLE0=John Coltrane - Trane's Slo Blues (excerpt)
TTITLE1=Baby Face Willette - I Can't Keep from Lovin' You
TTITLE2=Kenny Clarke - The Squirrel
TTITLE3=Johnnie Burnette - Blues Stay Away from Me
TTITLE4=Bobby Charles - No Use Knocking
TTITLE5=Kossoy Sisters - I'll Fly Away
TTITLE6=Kenny Clarke - Blue Serge
TTITLE7=Slim Harpo - I Got Love If You Want It
TTITLE8=Abbey Lincoln - Don't Explain
TTITLE9=James Brown - Hold My Baby's Hand
TTITLE10=Sun Ra - Reflections in Blues (excerpt)
TTITLE11=Billy Tipton - Willow Weep for Me
TTITLE12=Shy Guy and the Hot Rods - Let's Rock and Roll
TTITLE13=Jimmy Dean - Freight Train Blues
TTITLE14=Gladys Bentley - Juneteenth Jamboree
TTITLE15=Larry Adler - Bess You Is My Woman
TTITLE16=Billy Lee Riley - Baby Please Don't Go
TTITLE17=Fess Manetta - Old New Orleans Blues
TTITLE18=Francis Wayne - Blue and Sentimental
TTITLE19=Barbara Bennett - Big Daddy Rabbit
TTITLE20=Bill Harris - Blue Flame
TTITLE21=Magic Sam - Love Me with a Feeling
TTITLE22=Ornette Coleman - Ramblin'
TTITLE23=John LaPorta - Blues Chorale - Third Variation
TTITLE24=Charles McDevitt and his Skiffle Group - Poor Howard
TTITLE25=Five Royales - Say It
EXTD=
EXTT0=
EXTT1=
EXTT2=
EXTT3=
EXTT4=
EXTT5=
EXTT6=
EXTT7=
EXTT8=
EXTT9=
EXTT10=
EXTT11=
EXTT12=
EXTT13=
EXTT14=
EXTT15=
EXTT16=
EXTT17=
EXTT18=
EXTT19=
EXTT20=
EXTT21=
EXTT22=
EXTT23=
EXTT24=
EXTT25=
PLAYORDER=
